#!OML:ASF H:\Martial Arts Walks\Project 1\Capture day 1\Session 1\male.ASF
:FULLY-SPECIFIED
:DEGREES
2076
root 0.590294 17.0923 -50.6058 6.16136 -0.168974 -2.57329
lowerback 5.19034 1.00369 -4.28728
upperback -2.79718 1.07763 1.16735
thorax -5.93912 0.728491 3.51761
lowerneck -1.45009 -11.2286 -13.4206
upperneck 9.58439 -15.5895 10.6286
head 5.00098 -7.74306 4.44351
rclavicle -1.59028e-015 -1.98785e-015
rhumerus -36.8269 16.9502 -89.2443
rradius 38.5595
rwrist -0.748128
rhand -9.04124 -20.0592
rfingers 7.12502
rthumb 16.9067 -49.3433
lclavicle -1.59028e-015 -1.98785e-015
lhumerus -28.3617 -4.53346 88.8506
lradius 25.7278
lwrist -30.2113
lhand -18.7193 23.8639
lfingers 7.12502
lthumb 7.57606 -306.292
rfemur -20.0301 10.7848 11.316
rtibia 34.0816
rfoot -11.4665 -14.264
rtoes -11.7793
lfemur -12.5958 -3.58549 -13.0943
ltibia 30.1242
lfoot -12.8078 16.9289
ltoes -11.3085
2077
root 0.593815 17.0929 -50.5996 6.16991 -0.219401 -2.58509
lowerback 5.15262 0.985685 -4.3028
upperback -2.80326 1.05452 1.17882
thorax -5.92238 0.717695 3.54122
lowerneck -1.39963 -11.3098 -13.4757
upperneck 9.5662 -15.7137 10.7174
head 5.01394 -7.80382 4.46882
rclavicle 8.19987e-016 -3.57812e-015
rhumerus -36.9478 16.8542 -89.1588
rradius 38.4274
rwrist -0.731215
rhand -9.05224 -20.0703
rfingers 7.12502
rthumb 16.8962 -49.3554
lclavicle 8.19987e-016 -3.57812e-015
lhumerus -28.4739 -4.7707 88.9517
lradius 25.9703
lwrist -29.9128
lhand -18.6743 23.9874
lfingers 7.12502
lthumb 7.61957 -306.17
rfemur -20.0092 10.8386 11.3168
rtibia 34.0469
rfoot -11.4592 -14.288
rtoes -11.7955
lfemur -12.5583 -3.58082 -13.1046
ltibia 30.111
lfoot -12.8296 16.9773
ltoes -11.2653
2078
root 0.597082 17.0934 -50.5936 6.17925 -0.274164 -2.59104
lowerback 5.119 0.971404 -4.32402
upperback -2.81036 1.03566 1.18812
thorax -5.90953 0.709279 3.56525
lowerneck -1.34369 -11.3824 -13.5323
upperneck 9.54209 -15.8273 10.8141
head 5.02379 -7.8594 4.49822
rclavicle 2.55935e-015 4.17448e-015
rhumerus -37.0729 16.7542 -89.0694
rradius 38.2982
rwrist -0.71747
rhand -9.06724 -20.0879
rfingers 7.12502
rthumb 16.8817 -49.3741
lclavicle 2.55935e-015 4.17448e-015
lhumerus -28.5758 -5.00595 89.0516
lradius 26.1981
lwrist -29.622
lhand -18.6383 24.092
lfingers 7.12502
lthumb 7.65428 -306.066
rfemur -19.9955 10.8918 11.3113
rtibia 34.0189
rfoot -11.452 -14.3121
rtoes -11.8245
lfemur -12.5217 -3.56769 -13.1205
ltibia 30.0971
lfoot -12.8488 17.0235
ltoes -11.2301
2079
root 0.600049 17.0938 -50.5879 6.18909 -0.333708 -2.59184
lowerback 5.08812 0.959613 -4.3516
upperback -2.81692 1.0195 1.19662
thorax -5.89807 0.702452 3.59172
lowerneck -1.27747 -11.4472 -13.5907
upperneck 9.50809 -15.9312 10.9159
head 5.02843 -7.91051 4.53127
rclavicle -1.56916e-014 -1.70955e-014
rhumerus -37.1958 16.6512 -88.9754
rradius 38.1676
rwrist -0.707078
rhand -9.08377 -20.1695
rfingers 7.12502
rthumb 16.8658 -49.4571
lclavicle -1.56916e-014 -1.70955e-014
lhumerus -28.6544 -5.19933 89.139
lradius 26.3898
lwrist -29.3713
lhand -18.6217 24.1425
lfingers 7.12502
lthumb 7.67031 -306.017
rfemur -19.9885 10.9456 11.3005
rtibia 33.997
rfoot -11.4438 -14.3361
rtoes -11.8619
lfemur -12.4873 -3.54501 -13.1413
ltibia 30.0845
lfoot -12.8659 17.0664
ltoes -11.2082
2080
root 0.602642 17.0942 -50.5825 6.20008 -0.402954 -2.59032
lowerback 5.06015 0.951632 -4.38467
upperback -2.82519 1.00793 1.20573
thorax -5.89068 0.698249 3.62141
lowerneck -1.18558 -11.5018 -13.6595
upperneck 9.45808 -16.024 11.03
head 5.02452 -7.95707 4.57264
rclavicle -2.36057e-015 3.77691e-015
rhumerus -37.3142 16.5439 -88.8759
rradius 38.0295
rwrist -0.699082
rhand -9.09857 -20.2249
rfingers 7.12502
rthumb 16.8516 -49.5137
lclavicle -2.36057e-015 3.77691e-015
lhumerus -28.707 -5.33082 89.2109
lradius 26.5325
lwrist -29.1803
lhand -18.6231 24.1514
lfingers 7.12502
lthumb 7.66893 -306.008
rfemur -19.9914 11.0051 11.2864
rtibia 33.9809
rfoot -11.4292 -14.3621
rtoes -11.9251
lfemur -12.4552 -3.50883 -13.1638
ltibia 30.0738
lfoot -12.8779 17.1061
ltoes -11.1991
2081
root 0.604942 17.0945 -50.5776 6.21257 -0.475868 -2.59135
lowerback 5.03737 0.94442 -4.41638
upperback -2.83629 0.997347 1.21679
thorax -5.88935 0.694721 3.65222
lowerneck -1.08687 -11.5501 -13.7241
upperneck 9.40677 -16.1079 11.1335
head 5.0169 -7.99986 4.61155
rclavicle 1.3244e-014 -1.31198e-014
rhumerus -37.4371 16.4347 -88.7728
rradius 37.8958
rwrist -0.69559
rhand -9.11215 -20.2775
rfingers 7.12502
rthumb 16.8385 -49.5674
lclavicle 1.3244e-014 -1.31198e-014
lhumerus -28.7418 -5.3995 89.2659
lradius 26.635
lwrist -29.0467
lhand -18.6396 24.1235
lfingers 7.12502
lthumb 7.65303 -306.035
rfemur -20.002 11.0649 11.275
rtibia 33.9702
rfoot -11.4135 -14.3842
rtoes -11.9878
lfemur -12.4265 -3.46529 -13.1821
ltibia 30.0656
lfoot -12.8938 17.1396
ltoes -11.1738
2082
root 0.606976 17.0946 -50.5729 6.22604 -0.549847 -2.59283
lowerback 5.01969 0.938245 -4.44775
upperback -2.84953 0.987963 1.22847
thorax -5.89332 0.691958 3.6833
lowerneck -1.01197 -11.5931 -13.7804
upperneck 9.37064 -16.1814 11.2218
head 5.01476 -8.03705 4.64398
rclavicle 3.23025e-015 -5.36719e-015
rhumerus -37.5607 16.3156 -88.6651
rradius 37.7617
rwrist -0.689254
rhand -9.12974 -20.294
rfingers 7.12502
rthumb 16.8215 -49.5853
lclavicle 3.23025e-015 -5.36719e-015
lhumerus -28.7806 -5.46155 89.3197
lradius 26.7404
lwrist -28.9178
lhand -18.6523 24.1072
lfingers 7.12502
lthumb 7.64081 -306.051
rfemur -20.0191 11.1177 11.2643
rtibia 33.9654
rfoot -11.3955 -14.3985
rtoes -12.0539
lfemur -12.4009 -3.41938 -13.1986
ltibia 30.059
lfoot -12.9097 17.1711
ltoes -11.1434
2083
root 0.608815 17.0947 -50.5687 6.24011 -0.619981 -2.59403
lowerback 5.00696 0.930589 -4.4772
upperback -2.86403 0.976508 1.24009
thorax -5.9012 0.688214 3.71341
lowerneck -0.940823 -11.6314 -13.831
upperneck 9.33575 -16.2475 11.3012
head 5.01156 -8.07065 4.6734
rclavicle -1.0958e-014 4.77083e-015
rhumerus -37.6812 16.1941 -88.5557
rradius 37.6248
rwrist -0.685223
rhand -9.14619 -20.2512
rfingers 7.12502
rthumb 16.8057 -49.5439
lclavicle -1.0958e-014 4.77083e-015
lhumerus -28.8223 -5.51827 89.371
lradius 26.8488
lwrist -28.796
lhand -18.6564 24.1029
lfingers 7.12502
lthumb 7.63678 -306.055
rfemur -20.0412 11.1564 11.2539
rtibia 33.9667
rfoot -11.3814 -14.3992
rtoes -12.116
lfemur -12.3786 -3.37472 -13.2138
ltibia 30.0528
lfoot -12.928 17.1973
ltoes -11.0982
